<svg xmlns="http://www.w3.org/2000/svg" fill="none" stroke="#f06c9b" stroke-width="2" viewBox="0 0 24 24"><circle cx="12" cy="12" r="3"/><path d="M19.4 15a1.6 1.6 0 00.3 1.7l.2.2a1.6 1.6 0 01-2.3 2.3l-.2-.2a1.6 1.6 0 00-1.7-.3 1.6 1.6 0 00-1 1.5v.5a1.6 1.6 0 01-3.2 0v-.5a1.6 1.6 0 00-1-1.5 1.6 1.6 0 00-1.7.3l-.2.2a1.6 1.6 0 01-2.3-2.3l.2-.2a1.6 1.6 0 00.3-1.7 1.6 1.6 0 00-1.5-1H3a1.6 1.6 0 010-3.2h.5a1.6 1.6 0 001.5-1 1.6 1.6 0 00-.3-1.7l-.2-.2a1.6 1.6 0 012.3-2.3l.2.2a1.6 1.6 0 001.7.3h.1a1.6 1.6 0 001-1.5V3a1.6 1.6 0 013.2 0v.5a1.6 1.6 0 001 1.5h.1a1.6 1.6 0 001.7-.3l.2-.2a1.6 1.6 0 012.3 2.3l-.2.2a1.6 1.6 0 00-.3 1.7v.1a1.6 1.6 0 001.5 1h.5a1.6 1.6 0 010 3.2h-.5a1.6 1.6 0 00-1.5 1z"/></svg>